<?xml version="1.0" encoding="utf-8"?>
<!-- Generator: Adobe Illustrator 25.2.0, SVG Export Plug-In . SVG Version: 6.00 Build 0)  -->
<svg version="1.1" id="Layer_1" xmlns="http://www.w3.org/2000/svg" xmlns:xlink="http://www.w3.org/1999/xlink" x="0px" y="0px"
	 viewBox="0 0 415.09 149.51" style="enable-background:new 0 0 415.09 149.51;" xml:space="preserve" width="271px" height="98px">
<style type="text/css">
	.st0{fill-rule:evenodd;clip-rule:evenodd;fill:#346CDE;}
</style>
<g>
	<path d="M162.77,140.42c-1.66,0-3-1.34-3-3V53.3c0-0.85,0-1.72,0-2.61c0-0.3-0.01-0.66-0.02-1.08c-0.04-1.69,1.31-3.09,3-3.09
		l6.15,0c1.6,0,2.92,1.26,3,2.86l0.29,6.46c0.66-0.85,1.6-1.88,2.82-3.11c1.22-1.22,2.75-2.4,4.59-3.53
		c1.84-1.13,3.98-2.09,6.42-2.89c2.45-0.8,5.27-1.2,8.47-1.2c5.08,0,9.48,0.94,13.2,2.82c3.72,1.88,6.8,4.43,9.25,7.62
		c2.45,3.2,4.26,6.87,5.44,11.01c1.18,4.14,1.77,8.52,1.77,13.13c0,5.93-1.01,11.06-3.04,15.39c-2.03,4.33-4.66,7.91-7.91,10.73
		c-3.25,2.82-6.87,4.92-10.87,6.28c-4,1.36-7.93,2.05-11.79,2.05c-4.43,0-7.98-0.45-10.66-1.34c-2.68-0.89-5.2-1.86-7.55-2.89v27.5
		c0,1.66-1.34,3-3,3H162.77z M172.33,97.92c1.5,1.22,3.67,2.4,6.5,3.53c2.82,1.13,6.35,1.69,10.59,1.69c3.2,0,6.14-0.59,8.83-1.76
		c2.68-1.18,4.99-2.82,6.92-4.94c1.93-2.12,3.41-4.59,4.45-7.41c1.03-2.82,1.55-5.93,1.55-9.32c0-3.2-0.35-6.21-1.06-9.04
		s-1.84-5.32-3.39-7.48c-1.55-2.17-3.55-3.88-6-5.15c-2.45-1.27-5.46-1.91-9.04-1.91c-4.52,0-8.38,1.25-11.58,3.74
		c-3.2,2.5-5.46,6.14-6.78,10.94c-0.47,1.51-0.75,3.13-0.85,4.87c-0.09,1.74-0.14,3.55-0.14,5.44V97.92z"/>
	<path d="M292.25,100.48c1.15,1.22,1.08,3.14-0.16,4.27c-0.38,0.35-0.79,0.71-1.23,1.1c-1.51,1.32-3.46,2.59-5.86,3.81
		c-2.4,1.22-5.22,2.28-8.47,3.18s-6.94,1.34-11.08,1.34c-5.08,0-9.74-0.85-13.98-2.54c-4.24-1.69-7.86-4.1-10.87-7.2
		c-3.01-3.11-5.34-6.82-6.99-11.15c-1.65-4.33-2.47-9.13-2.47-14.4c0-4.8,0.8-9.29,2.4-13.48c1.6-4.19,3.86-7.81,6.78-10.87
		c2.92-3.06,6.38-5.48,10.38-7.27c4-1.79,8.4-2.68,13.2-2.68c5.65,0,10.5,1.08,14.54,3.25c4.05,2.17,7.36,5.04,9.95,8.61
		c2.59,3.58,4.49,7.67,5.72,12.29c0.96,3.63,1.55,7.38,1.75,11.24c0.09,1.72-1.29,3.16-3.01,3.16h-48.73
		c0.09,2.92,0.73,5.6,1.91,8.05c1.18,2.45,2.75,4.57,4.73,6.35c1.98,1.79,4.24,3.2,6.78,4.24c2.54,1.04,5.22,1.55,8.05,1.55
		c5.55,0,10.12-0.94,13.7-2.82c2.36-1.24,4.29-2.47,5.79-3.67c1.2-0.96,2.95-0.8,4.01,0.32L292.25,100.48z M282.82,73.66
		c-0.38-5.08-2.17-9.41-5.37-12.99c-3.2-3.58-7.72-5.37-13.56-5.37c-3.01,0-5.72,0.52-8.12,1.55c-2.4,1.04-4.45,2.4-6.14,4.09
		c-1.69,1.69-3.01,3.65-3.95,5.86c-0.94,2.21-1.46,4.5-1.55,6.85H282.82z"/>
	<path d="M363.97,100.48c1.15,1.22,1.08,3.14-0.15,4.27c-0.38,0.35-0.79,0.71-1.23,1.1c-1.51,1.32-3.46,2.59-5.86,3.81
		c-2.4,1.22-5.22,2.28-8.47,3.18c-3.25,0.89-6.94,1.34-11.08,1.34c-5.08,0-9.74-0.85-13.98-2.54c-4.24-1.69-7.86-4.1-10.87-7.2
		c-3.01-3.11-5.34-6.82-6.99-11.15c-1.65-4.33-2.47-9.13-2.47-14.4c0-4.8,0.8-9.29,2.4-13.48c1.6-4.19,3.86-7.81,6.78-10.87
		c2.92-3.06,6.38-5.48,10.38-7.27c4-1.79,8.4-2.68,13.2-2.68c5.65,0,10.5,1.08,14.54,3.25c4.05,2.17,7.36,5.04,9.95,8.61
		c2.59,3.58,4.49,7.67,5.72,12.29c0.96,3.63,1.55,7.38,1.75,11.24c0.09,1.72-1.29,3.16-3.01,3.16h-48.73
		c0.09,2.92,0.73,5.6,1.91,8.05c1.18,2.45,2.75,4.57,4.73,6.35c1.98,1.79,4.24,3.2,6.78,4.24c2.54,1.04,5.22,1.55,8.05,1.55
		c5.55,0,10.12-0.94,13.7-2.82c2.36-1.24,4.29-2.47,5.79-3.67c1.2-0.96,2.95-0.8,4.01,0.32L363.97,100.48z M354.54,73.66
		c-0.38-5.08-2.17-9.41-5.37-12.99c-3.2-3.58-7.72-5.37-13.56-5.37c-3.01,0-5.72,0.52-8.12,1.55c-2.4,1.04-4.45,2.4-6.14,4.09
		s-3.01,3.65-3.95,5.86c-0.94,2.21-1.46,4.5-1.55,6.85H354.54z"/>
	<path d="M377.59,112.23c-1.66,0-3-1.34-3-3V52.92c0-0.66,0-1.41,0-2.26c0-0.28-0.01-0.61-0.02-1c-0.04-1.69,1.31-3.09,3-3.09
		l6.14,0c1.61,0,2.93,1.27,3,2.88l0.31,7.71c0.75-1.13,1.74-2.38,2.96-3.74c1.22-1.36,2.71-2.61,4.45-3.74
		c1.74-1.13,3.76-2.09,6.07-2.89c2.31-0.8,4.96-1.2,7.98-1.2c1.41,0,2.71,0.1,3.88,0.28c0.1,0.02,0.19,0.03,0.29,0.05
		c1.68,0.3,2.75,1.98,2.35,3.65l-1.44,6.04c-0.36,1.52-1.83,2.52-3.36,2.27c-1.14-0.19-2.42-0.29-3.84-0.29
		c-2.73,0-5.25,0.52-7.55,1.55c-2.31,1.04-4.31,2.47-6,4.31c-1.69,1.84-3.04,3.98-4.02,6.42c-0.99,2.45-1.48,5.04-1.48,7.77v31.59
		c0,1.66-1.34,3-3,3H377.59z"/>
</g>
<path class="st0" d="M112,46.8L88.07,58.41c-1.82,0.89-3.3,2.36-4.19,4.18L72.24,86.47c-1.1,2.26-4.33,2.26-5.43,0L55.18,62.59
	c-0.89-1.82-2.36-3.29-4.19-4.18L27.06,46.8c-2.27-1.1-2.27-4.32,0-5.42l23.93-11.61c1.83-0.89,3.3-2.36,4.19-4.18L66.81,1.7
	c1.1-2.26,4.33-2.26,5.43,0l11.63,23.89c0.89,1.82,2.36,3.29,4.19,4.18L112,41.38C114.26,42.47,114.26,45.7,112,46.8z M25.82,82.92
	l5.78,11.87c0.59,1.22,1.58,2.2,2.79,2.79l11.9,5.77c1.7,0.83,1.7,3.24,0,4.07l-11.9,5.77c-1.22,0.59-2.2,1.57-2.79,2.79
	l-5.78,11.88c-0.83,1.69-3.25,1.69-4.07,0l-5.78-11.88c-0.59-1.22-1.57-2.2-2.79-2.79l-11.9-5.77c-1.7-0.82-1.7-3.24,0-4.07
	l11.9-5.77c1.22-0.59,2.2-1.57,2.79-2.79l5.78-11.87C22.58,81.23,25,81.23,25.82,82.92z M70.84,130.36l9.1-4.42
	c0.91-0.44,1.65-1.18,2.09-2.09l4.42-9.09c0.55-1.13,2.17-1.13,2.72,0l4.43,9.09c0.44,0.91,1.18,1.65,2.09,2.09l9.1,4.42
	c1.13,0.55,1.13,2.16,0,2.71l-10.51,5.1l-5.11,10.49c-0.55,1.13-2.17,1.13-2.72,0l-4.42-9.08c-0.44-0.91-1.18-1.65-2.09-2.09
	l-9.1-4.42C69.71,132.52,69.71,130.91,70.84,130.36z"/>
</svg>
